<svg xmlns="http://www.w3.org/2000/svg" width="16" height="16" viewBox="0 0 16 16" focusable="false" aria-hidden="true" class="tw-ml-[4px] tw-align-middle tw-animate-rotate-loop-reduced motion-safe:tw-animate-rotate-loop tw-relative tw--top-px"><path fill-rule="hsl(26, 100%, 55%)" d="M5.2 3.8A5 5 0 017 3.1V2a1 1 0 012 0v1.1a5 5 0 011.8.7l.7-.7A1 1 0 1113 4.5l-.7.7c.3.6.6 1.2.7 1.8h1a1 1 0 110 2h-1.1a5 5 0 01-.7 1.8l.7.7a1 1 0 11-1.4 1.4l-.7-.7a5 5 0 01-1.8.7V14a1 1 0 11-2 0v-1.1a5 5 0 01-1.8-.7l-.7.7A1 1 0 113 11.5l.7-.7A5 5 0 013.1 9H2a1 1 0 010-2h1.1a5 5 0 01.7-1.8L3 4.5A1 1 0 014.5 3l.7.7zM8 10a2 2 0 100-4 2 2 0 000 4z" clip-rule="evenodd"></path></svg>